<?xml version="1.0" encoding="utf-8"?>
<!-- Generator: Adobe Illustrator 19.2.1, SVG Export Plug-In . SVG Version: 6.00 Build 0)  -->
<svg version="1.1" id="Layer_1" xmlns="http://www.w3.org/2000/svg" xmlns:xlink="http://www.w3.org/1999/xlink" x="0px" y="0px"
	 viewBox="0 0 1024 313.1" style="enable-background:new 0 0 1024 313.1;" xml:space="preserve">
<style type="text/css">
	.st0{fill:#B1D249;}
	.st1{fill:#00B6CD;}
</style>
<g>
	<path class="st0" d="M445.5,49.9h-65.7c-36.3,0-65.7,29.4-65.7,65.7h131.4c18.1,0,32.8-14.7,32.8-32.9
		C478.4,64.6,463.7,49.9,445.5,49.9"/>
	<path class="st0" d="M439,214.2c18.1,0,32.9-14.7,32.9-32.9c0-18.2-14.7-32.9-32.9-32.9h-92c-18.2,0-32.9,14.7-32.9,32.9
		c0,18.1,14.7,32.9,32.9,32.9H439z"/>
	<path class="st0" d="M445.5,247.1H314.1c0,36.3,29.4,65.7,65.7,65.7h65.7c18.1,0,32.8-14.7,32.8-32.9
		C478.4,261.8,463.7,247.1,445.5,247.1"/>
	<path class="st0" d="M230,49.9c-13.3,0-24.8,7.9-29.9,19.3c-20-12.3-43.5-19.3-68.6-19.3C58.9,49.9,0,108.8,0,181.3
		c0,72.6,58.9,131.5,131.4,131.5l12.8,0.3c18.2,0,32.9-14.7,32.9-32.9c0-18.1-14.7-32.8-32.9-32.8l-12.8-0.3
		c-36.3,0-65.7-29.4-65.7-65.7c0-36.3,29.4-65.7,65.7-65.7c36.3,0,65.7,29.4,65.7,65.7v98.6c0,18.1,14.7,32.9,32.9,32.9
		c18.2,0,32.9-14.7,32.9-32.9v-98.6V82.8C262.9,64.6,248.2,49.9,230,49.9"/>
	<path class="st0" d="M661,49.9c-25.2,0-48.7,7.1-68.6,19.3c-5.2-11.4-16.6-19.3-29.9-19.3c-18.1,0-32.8,14.7-32.8,32.9v98.6v98.6
		c0,18.1,14.7,32.9,32.8,32.9c18.2,0,32.9-14.7,32.9-32.9v-98.6c0-36.3,29.4-65.7,65.7-65.7c36.3,0,65.7,29.4,65.7,65.7l0,98.6
		c0,18.1,14.7,32.9,32.9,32.9c18.1,0,32.9-14.7,32.9-32.9v-98.6C792.4,108.8,733.6,49.9,661,49.9"/>
</g>
<g>
	<polygon class="st1" points="937.2,63.5 970,81.5 937.2,0.6 904.3,81.5 904.3,81.5 904.3,81.5 	"/>
	<polygon class="st1" points="970,147.2 1024,114.4 970.1,81.5 970.1,81.5 988,114.4 	"/>
	<polygon class="st0" points="970,147.2 937.2,93.2 904.3,147.2 904.3,147.2 937.2,129.2 	"/>
	<polygon class="st1" points="904.3,147.2 850.4,114.4 904.3,81.5 904.3,81.5 886.4,114.4 	"/>
</g>
</svg>
